<?xml version="1.0" encoding="utf-8"?>
<svg 
  xmlns="http://www.w3.org/2000/svg"
  width="24"
  height="24"
  viewBox="0 0 24 24"
  fill="none"
  stroke="#000000"
  stroke-width="3.5"
  stroke-linecap="round"
  stroke-linejoin="round"
>
  <path d="M12 2.5C12.5 2.5 13 2.7 13.4 3.1C13.8 3.5 14 4 14 4.5C14 5 13.8 5.5 13.4 5.9L4 19C3.6 19.4 3.1 19.6 2.6 19.6C2.1 19.6 1.6 19.4 1.2 19C0.8 18.6 0.6 18.1 0.6 17.6C0.6 17.1 0.8 16.6 1.2 16.2L10.6 3.1C11 2.7 11.5 2.5 12 2.5Z" />
  <path d="M12 2.5C11.5 2.5 11 2.7 10.6 3.1C10.2 3.5 10 4 10 4.5C10 5 10.2 5.5 10.6 5.9L20 19C20.4 19.4 20.9 19.6 21.4 19.6C21.9 19.6 22.4 19.4 22.8 19C23.2 18.6 23.4 18.1 23.4 17.6C23.4 17.1 23.2 16.6 22.8 16.2L13.4 3.1C13 2.7 12.5 2.5 12 2.5Z" />
</svg>
